<svg width="93" height="90" viewBox="0 0 93 90" fill="none" xmlns="http://www.w3.org/2000/svg">
<path d="M89.834 0H3C1.346 0 0 1.346 0 3V16.334C0 17.988 1.346 19.334 3 19.334H89.833C91.486 19.334 92.833 17.988 92.833 16.334V3C92.834 1.346 91.488 0 89.834 0Z" fill="#535050"/>
<path d="M89.834 35H3C1.346 35 0 36.346 0 38V51.334C0 52.988 1.346 54.334 3 54.334H89.833C91.486 54.334 92.833 52.988 92.833 51.334V38C92.834 36.346 91.488 35 89.834 35Z" fill="#535050"/>
<path d="M89.834 70H3C1.346 70 0 71.346 0 73V86.334C0 87.988 1.346 89.334 3 89.334H89.833C91.486 89.334 92.833 87.988 92.833 86.334V73C92.834 71.345 91.488 70 89.834 70Z" fill="#535050"/>
</svg>
